<?xml version="1.0" encoding="utf-8"?>
<!-- Generator: Adobe Illustrator 23.0.6, SVG Export Plug-In . SVG Version: 6.00 Build 0)  -->
<svg version="1.1" id="Layer_1" xmlns="http://www.w3.org/2000/svg" xmlns:xlink="http://www.w3.org/1999/xlink" x="0px" y="0px"
	 viewBox="0 0 219.3 244.3" style="enable-background:new 0 0 219.3 244.3;" xml:space="preserve">
<style type="text/css">
	.st0{fill:url(#SVGID_1_);}
	.st1{fill:url(#SVGID_2_);}
	.st2{fill-rule:evenodd;clip-rule:evenodd;fill:url(#SVGID_3_);}
	.st3{fill:url(#SVGID_4_);}
	.st4{fill-rule:evenodd;clip-rule:evenodd;fill:url(#SVGID_5_);}
	.st5{fill:url(#SVGID_6_);}
	.st6{fill:url(#SVGID_7_);}
</style>
<g>
	<g>
		
			<linearGradient id="SVGID_1_" gradientUnits="userSpaceOnUse" x1="-75.3522" y1="129.8922" x2="64.0722" y2="-22.0646" gradientTransform="matrix(1 0 0 -1 0 246)">
			<stop  offset="0" style="stop-color:#A677B4"/>
			<stop  offset="0.3626" style="stop-color:#F0515A"/>
			<stop  offset="1" style="stop-color:#2B338C"/>
		</linearGradient>
		<polygon class="st0" points="25.1,207.2 13.2,241.8 0,241.8 11.8,207.2 2.4,207.2 6.1,196.3 38.2,196.3 34.5,207.2 		"/>
		
			<linearGradient id="SVGID_2_" gradientUnits="userSpaceOnUse" x1="-62.9191" y1="141.3" x2="76.5052" y2="-10.6568" gradientTransform="matrix(1 0 0 -1 0 246)">
			<stop  offset="0" style="stop-color:#A677B4"/>
			<stop  offset="0.3626" style="stop-color:#F0515A"/>
			<stop  offset="1" style="stop-color:#2B338C"/>
		</linearGradient>
		<polygon class="st1" points="57.2,230.9 53.5,241.8 19.2,241.8 34.8,196.3 64.8,196.3 61.2,206.8 44.9,206.8 42.7,213.4 
			59.3,213.4 55.8,223.5 39.2,223.5 36.7,230.9 		"/>
		<g>
			
				<linearGradient id="SVGID_3_" gradientUnits="userSpaceOnUse" x1="38.4043" y1="234.2668" x2="177.8286" y2="82.31" gradientTransform="matrix(1 0 0 -1 0 246)">
				<stop  offset="0" style="stop-color:#A677B4"/>
				<stop  offset="0.3626" style="stop-color:#F0515A"/>
				<stop  offset="1" style="stop-color:#2B338C"/>
			</linearGradient>
			<path class="st2" d="M108.9,85.8v1.9 M158.9,147.3l1.7-0.4l0.2,1.3c0.9,5.9,0.5,11-1.9,16.2c3.7,0.5,6.9,2.3,8.6,6
				c1.2,2.7,2.4,5.7,2.4,8.7c0,2.2-0.7,4.4-2.4,5.8c-1,0.8-2.3,1.3-3.6,1.3h-19.3c-1.1,3-3.3,5.8-6.5,6.7c-0.9,0.2-1.8,0.3-2.7,0.4
				c-1,0-1.9,0.1-2.9,0.1c-2.5,0-5,0-7.5,0c-3.9,0-7.8-0.1-11.7-0.2c-2.4-0.1-4.5-1.5-5.5-3.6c-1,2.1-3.1,3.5-5.5,3.6
				c-3.9,0.1-7.8,0.2-11.7,0.2c-2.5,0-5,0-7.5,0c-1,0-1.9,0-2.9-0.1c-0.9-0.1-1.8-0.1-2.7-0.4c-3.2-0.8-5.4-3.6-6.5-6.7H51.9
				c-1.3,0-2.6-0.5-3.6-1.3c-1.7-1.4-2.4-3.6-2.4-5.8c0-2.9,1.2-6,2.4-8.7c0.6-1.4,1.6-2.7,2.8-3.7c1.6-1.3,3.6-2,5.6-2.3
				c-2.4-5.2-2.8-10.3-1.9-16.2l0.2-1.3l1.9,0.5c0.2-1.1,0.5-2.2,0.9-3.3c1.3-3.9,3.6-7.4,6.8-9.9c1.2-0.9,2.4-1.7,3.7-2.3
				c0.2-3.5,0.6-7,1.4-10.5c0.7-4.7,2-9.2,4.1-13.5c-1-1.2-1.8-2.5-2.5-3.9c-0.1-0.2-0.2-0.4-0.3-0.7c-6-3.4-11.5-7.9-16.3-13.8
				c-2.7-3.3-6.7-8.5-7-12.8c-0.2-1.5-0.2-3-0.2-4.6c-0.1-3.7,0.2-7.3,0.6-10.9c0.3-2.1,0.6-4.2,1-6.3c-2.8-3.2-5.3-6.8-7.3-10.5
				c-3.2-5.9-5.3-12.4-6.1-19.1c-0.8-6.6-0.2-13.3,1.5-19.8C38.1,2.3,41,0,44.3,0c12.6,0,23.5,5.1,33.6,11.8
				c18.9-11.6,42.9-11.7,61.9,0C149.9,5.2,160.8,0,173.4,0c3.4,0,6.3,2.2,7.2,5.5c1.7,6.5,2.3,13.1,1.5,19.8s-2.9,13.1-6.1,19.1
				c-2,3.8-4.5,7.3-7.3,10.5c0.4,2,0.7,4,1,6c0.5,3.7,0.7,7.4,0.6,11.2c0,1.6-0.1,3.1-0.2,4.6c-0.4,4.5-4.2,9.5-7,12.9
				c-4.8,5.9-10.3,10.4-16.3,13.8c-0.1,0.2-0.2,0.4-0.3,0.7c-0.5,1.1-1.1,2.2-1.7,3.2c-0.6,1-1.3,1.8-2,2.6c0.5,1.2,1,2.4,1.4,3.7
				c0.9,2.6,1.5,5.3,1.9,8.1c0.3,1.4,0.6,2.8,0.8,4.2c5.6-9.4,13-17.8,22.3-23c5.5-3.1,11.7-5,18-4.8c6.7,0.2,13.3,3.3,18.4,7.6
				c5.6,4.7,10.1,11.4,10.9,18.8c0.1,1.2,0,2.4-0.2,3.6c-1,4-4,7.1-7.6,8.8c-4.6,2.2-10.4,2.1-14.3-1.6c-2.2-2.1-2.9-4.4-4-7.1
				c-0.7-1.6-1.4-2.8-2.7-3.8c-1.9-1.4-4.2-2.1-6.5-2c-3.3,0.2-6.3,2.1-8.6,4.4c-1.3,1.3-2.5,2.7-3.7,4.1c-2.2,2.7-4.2,5.6-6,8.6
				c-1.4,2.3-2.6,4.7-3.6,7.2c-0.1,0.1-0.1,0.3-0.2,0.4C158.9,147.1,158.9,147.2,158.9,147.3L158.9,147.3z M164,126.3
				c0.3,0,0.6,0,0.9,0.2c1.1-1.3,2.3-2.6,3.5-3.8c0.4-0.4,0.8-0.7,1.2-1.1c-1.5-1-2.8-2.5-3.7-4.1c-0.8-1.3-1.4-2.9-1.6-4.5
				c-2.4,2.1-4.7,4.5-6.9,7.2c-0.1,1.7,1.5,3.7,2.7,4.6C161.2,125.7,162.6,126.4,164,126.3L164,126.3z M162.3,129.8
				c-1.6-0.3-3.1-1-4.4-2.1c-1.2-1-2.4-2.3-3.2-3.8c-2.1,3-4.1,6.3-5.9,9.9c0.6,0.4,1.2,0.8,1.8,1.2c2,1.6,3.7,3.6,4.9,5.9
				C157.1,137.7,159.4,133.7,162.3,129.8L162.3,129.8z M192.3,120.3c0,0.2-0.1,0.4-0.1,0.6c3.7,3.7,3.6,7.9,5.9,10.2
				c4.1,3.9,13.2-0.5,12.7-6.1c-0.5-4.9-3.3-9.8-7.3-13.6c0,0,0,0-0.1-0.1c-0.6-0.6-1.3-0.8-2.1-0.8
				C196.3,110.3,192.5,115.5,192.3,120.3L192.3,120.3z M188.8,118.5c0.2-1.2,0.6-2.5,1.1-3.6c1.6-3.6,4.6-6.6,8.3-7.7
				c-3.5-2.2-7.5-3.5-11.2-3.6c-1.1,0-2.2,0-3.3,0.1c-0.3,0.2-0.7,0.5-0.8,0.6c-0.2,0.2-0.4,0.4-0.6,0.5c-2.5,2.8-2.2,8.2-0.1,11.1
				c0.1,0.2,0.2,0.4,0.3,0.6C184.8,116.8,186.9,117.5,188.8,118.5L188.8,118.5z M178.4,117c-1-1.9-1.6-4.1-1.6-6.3
				c0-1.9,0.3-3.9,1.1-5.7c-2,0.7-4.1,1.6-6.1,2.7c-1.2,0.6-2.3,1.4-3.5,2.2c0,0,0,0,0,0.1c-1.1,1.6-0.1,4.3,0.8,5.8
				c0.8,1.3,1.9,2.7,3.3,3.3c0.2,0.1,0.3,0.2,0.4,0.3C174.7,118.1,176.6,117.4,178.4,117L178.4,117z M103.5,15.9
				c1,0,1.7,0.8,1.7,1.7c0,1-0.8,1.7-1.7,1.7c-1,0-1.7-0.8-1.7-1.7S102.6,15.9,103.5,15.9L103.5,15.9z M103.5,23.6
				c1,0,1.7,0.8,1.7,1.7s-0.8,1.7-1.7,1.7c-1,0-1.7-0.8-1.7-1.7S102.6,23.6,103.5,23.6L103.5,23.6z M114.3,15.9c1,0,1.7,0.8,1.7,1.7
				c0,1-0.8,1.7-1.7,1.7c-1,0-1.7-0.8-1.7-1.7C112.6,16.7,113.4,15.9,114.3,15.9L114.3,15.9z M114.3,23.6c1,0,1.7,0.8,1.7,1.7
				s-0.8,1.7-1.7,1.7c-1,0-1.7-0.8-1.7-1.7S113.4,23.6,114.3,23.6L114.3,23.6z M110.4,10.2v20.9c11.2,0.2,22.1,3.3,28.9,9.3
				c7.8,6.9,13,18.7,12.4,25c-0.5,5.5-9.5,9.3-21.4,11.3c0.6,1.1,1,2.2,1.2,3.5c0.3,1.7,0.3,3.5,0,5.1c4.5-0.5,8.6-1.2,12.2-2
				c8.8-1.9,15-4.2,18.8-5.7c0.2-0.6,0.4-1.2,0.4-1.7c0,0,2.6-23.5-10.8-42.8C141.9,18.2,126.2,10.6,110.4,10.2L110.4,10.2z
				 M107.5,31V10.2c-16.1,0.5-32,8.4-42.2,23.7C52.5,53,55,76,55,76s0,0.6,0.5,1.8c3.8,1.4,10,3.8,18.7,5.6c3.6,0.8,7.7,1.5,12.2,2
				c-0.3-1.7-0.3-3.4,0-5.1c0.2-1.3,0.6-2.4,1.2-3.5c-11.9-2-20.9-5.8-21.4-11.4c-0.6-6.3,4.6-18.1,12.4-25
				C85.3,34.4,96.3,31.3,107.5,31L107.5,31z M87.3,88.3c-5.1-0.5-9.7-1.3-13.8-2.2c-6.9-1.5-12.2-3.2-16.1-4.6
				c0.7,1.1,1.5,2.3,2.6,3.6c6.5,7.9,14.6,13.3,24.4,16.7c3.1,1.1,6.3,1.9,9.5,2.6v-0.1c-0.3-0.9-0.4-1.8-0.3-2.7
				c0.4-2.3,2.1-3.7,4.3-4.6c-4.1-1.4-7.8-3.7-10-7.5C87.7,89.1,87.5,88.7,87.3,88.3L87.3,88.3z M97.8,102.8c0.5,1.2,2,2.1,4,2.8
				c2.3,0.3,4.7,0.5,7.1,0.6c2.4-0.2,4.8-0.4,7.2-0.6c1.8-0.6,3.3-1.4,3.9-2.5C122.4,98.3,96.2,98.4,97.8,102.8L97.8,102.8z
				 M160.3,81.6c-3.9,1.4-9.2,3.1-16,4.6c-4,0.9-8.6,1.6-13.8,2.2c-0.2,0.4-0.4,0.8-0.6,1.2c-2.2,3.7-5.9,6.1-10,7.4
				c2.1,0.9,3.8,2.3,4.2,4.5c0.2,1,0.1,2-0.3,2.9c8-1.6,15.4-4.3,22.1-8.6c4.8-3.1,8.7-7.2,12.4-11.6
				C159,83.3,159.7,82.5,160.3,81.6L160.3,81.6z M107.9,89.2c-1.1,1.9-3.4,4.9-8.2,3.9c-5.9-1.9-10.2-5.9-9.1-12.3
				c1-5.8,10.5-9.3,18.4-9.3l0,0l0,0c7.8-0.1,17.4,3.5,18.4,9.3c0.9,5.5-2.2,9.2-6.8,11.4c-7,2.6-9.4-0.8-10.5-2.9
				c-0.5-1-0.7-1.6-1-1.6c0,0,0,0-0.1,0C108.7,87.8,108.4,88.3,107.9,89.2L107.9,89.2z M108.9,74.2c-4.7,0-10.5,1.4-11.1,4.3
				c-0.9,4.9,6.3,7.3,11.1,7.3l0,0l0,0h0.1c4.7,0,11.9-2.4,11-7.3C119.5,75.6,113.7,74.2,108.9,74.2L108.9,74.2L108.9,74.2z
				 M95.7,64.6c0,1-0.8,1.8-1.8,1.8s-1.8-0.8-1.8-1.8c0-2-0.7-3.9-1.9-5.2c-1.1-1.3-2.6-2-4.3-2c-1.1,0-2.2,0.4-3.1,1
				c-1,0.7-1.8,1.6-2.3,2.8c-0.4,0.9-1.5,1.3-2.3,0.8c-0.9-0.4-1.3-1.5-0.8-2.3c0.8-1.7,2-3.2,3.5-4.2s3.2-1.6,5-1.6
				c2.7,0,5.1,1.2,6.9,3.2C94.6,59.1,95.7,61.7,95.7,64.6L95.7,64.6z M122.2,64.6c0,1,0.8,1.8,1.8,1.8s1.8-0.8,1.8-1.8
				c0-2,0.7-3.9,1.9-5.2c1.1-1.3,2.6-2,4.3-2c1.1,0,2.2,0.4,3.1,1c1,0.7,1.8,1.6,2.3,2.8c0.4,0.9,1.5,1.3,2.3,0.8
				c0.9-0.4,1.3-1.5,0.9-2.3c-0.8-1.7-2-3.2-3.5-4.2s-3.2-1.6-5-1.6c-2.7,0-5.1,1.2-6.9,3.2C123.2,59.1,122.2,61.7,122.2,64.6
				L122.2,64.6z M123.6,111.7c-3.8,1.2-7.7,1.9-11.6,2.2c-4.9,0.3-9.7-0.1-14.5-1.3c-4.1-1-8-2.5-11.7-4.5c-1.5-0.4-3.1-1-4.6-1.5
				c3.3,4.4,8.1,8.4,14.7,10.6c-6-1-12-2.8-16.7-6.1c-3,6.5-4.9,15.7-3.4,28.1c0.3,2.8,0.8,5.5,1.3,8c7.9-3.6,13.4-2.2,20.2,2.4
				c0.8-10.8,3.1-18.9,4.1-22.2c0.5-1.4,1.1-2.1,1.9-2.2c0.9-0.1,2.4,0,2.3,2.6c-0.3,1.1-0.5,2.3-0.7,3.2c-0.5,2.4-0.8,4.9-1.2,7.3
				c-0.4,2.4-0.7,4.8-1,7.2c-0.2,1.6-0.4,3.1-0.5,4.7c-0.1,0.9-0.1,1.8-0.1,2.7c3.7,0.4,7.4,0.4,11.1-0.1c0-0.9-0.1-1.7-0.1-2.6
				c-0.3-3.9-0.9-8-1.4-11.8c-0.3-2.3-0.7-4.6-1.2-6.9c-0.3-1.3-0.6-3-1-4.2c0.1-2.6,3.5-3.1,4.4-0.3c1,3.1,3.5,11.5,4.3,22.9
				c6.2-3.5,14.3-6.2,20.2-2.9c0.5-2.5,0.9-5.1,1.3-7.8c1.4-11.5-0.1-20.2-2.7-26.5c-4.7,2.8-10.7,4.3-16.5,5
				c7.3-2.1,12.4-6.3,16-11c-1.5,0.6-3,1.1-4.6,1.5C129.7,109.5,126.8,110.7,123.6,111.7L123.6,111.7z M54.9,8.8
				c6.2,1.7,12.1,4.7,17.6,8.2c-2.2,1.8-4.4,3.8-6.4,6c-1.1-1.8-2.2-3.5-3.4-5.1C60.5,14.7,57.9,11.5,54.9,8.8L54.9,8.8z M44.6,7.3
				c0.2,0,0.4,0,0.6,0c7,3.8,13.2,11.6,17.8,19.4c-0.9,1.2-1.8,2.5-2.7,3.7c-3.4,5.1-6,10.7-7.8,16.5c-5.6-7.6-12.8-21.5-8-39.5
				C44.4,7.4,44.5,7.4,44.6,7.3L44.6,7.3z M173.3,7.3c-0.2,0-0.4,0-0.6,0c-7,3.8-13.2,11.6-17.8,19.4c0.8,1,1.5,2,2.2,3
				c3.7,5.3,6.4,11.1,8.4,17.2c5.6-7.6,12.8-21.5,8-39.5C173.4,7.4,173.4,7.4,173.3,7.3L173.3,7.3z M162.9,8.8
				c-6.2,1.7-12.1,4.7-17.6,8.2c2.2,1.8,4.4,3.8,6.4,6c1.1-1.8,2.2-3.5,3.4-5.1C157.4,14.7,160,11.5,162.9,8.8L162.9,8.8z
				 M78.4,152.6c2.2,8.3,5.1,14.6,7.1,18.4c0.4,0.8,0.7,1,1.5,1.5c2.4,1.5,5.9,3.1,6.5,9.2c-2.8-3.5-5.4-6.1-9.5-7
				c-2,0-4.3,0.4-5.8,2c-3.4,3.5-0.9,9.5,1.1,10.1s23,0,23,0s0.9-3.9-0.8-6.1c-1.6-2.2-4.1-13.3-4.3-25.2
				C92.3,151.2,84.7,148.3,78.4,152.6L78.4,152.6z M137.3,152.6c-2.2,8.3-5.1,14.6-7.1,18.4c-0.4,0.8-0.7,1-1.5,1.5
				c-2.4,1.5-5.9,3.1-6.5,9.2c2.8-3.5,5.4-6.1,9.5-7c2,0,4.3,0.4,5.8,2c3.4,3.5,0.9,9.5-1.1,10.1s-23,0-23,0s-0.9-3.9,0.8-6.1
				c1.6-2.2,4.1-13.3,4.3-25.2C123.4,151.2,131,148.3,137.3,152.6L137.3,152.6z M109.8,179c-0.6,0-1.3,0-1.9,0c-0.5,0-1,0-1.5,0
				c-0.2-0.4-0.5-0.9-0.8-1.3c-0.3-0.5-0.6-1.6-0.8-2.2c-0.6-2.1-1.1-4.3-1.4-6.4c-0.7-4-1.1-8-1.1-12.1c3.8,0.5,7.7,0.5,11.5-0.1
				c-0.1,4.7-0.6,9.4-1.4,14c-0.3,1.6-1.1,5.6-2,7C110.2,178.3,110,178.6,109.8,179L109.8,179z M155.6,153.6
				c0.2,11.3-7,15.8-11.2,19.2c19-8.6,21.2,6.1,19.3,7.7H144c-0.1-2.6-1.1-5.1-3-7c-1.5-1.5-3.3-2.5-5.2-3c1.5-3.2,2.8-6.5,3.8-9.8
				C145.2,157.7,151.7,154.6,155.6,153.6L155.6,153.6z M145.2,137c4.8,2.2,7.8,7.3,8.4,12.9c-3.9,1.1-8.1,3.1-11.7,4.9
				c1.3-4.9,2.3-9.9,2.9-15C145,138.9,145.1,137.9,145.2,137L145.2,137z M70.6,137.1c-4.7,2.3-7.6,7.3-8.3,12.9
				c3.8,1.2,8,3.1,11.5,4.9c-1.3-4.9-2.3-9.9-2.9-15C70.8,138.9,70.7,138,70.6,137.1L70.6,137.1z M60.2,153.6
				c-0.2,11.3,7,15.8,11.2,19.2c-19.1-8.6-21.2,6.1-19.3,7.7h19.4c0.1-2.7,1.1-5.3,3.1-7.3c1.4-1.5,3.1-2.4,5-3
				c-0.4-0.8-0.8-1.6-1.1-2.5c-1.1-2.4-2-4.9-2.9-7.4C70.1,157.4,63.9,154.6,60.2,153.6L60.2,153.6z"/>
			
				<linearGradient id="SVGID_4_" gradientUnits="userSpaceOnUse" x1="-43.0749" y1="159.5075" x2="96.3494" y2="7.5507" gradientTransform="matrix(1 0 0 -1 0 246)">
				<stop  offset="0" style="stop-color:#A677B4"/>
				<stop  offset="0.3626" style="stop-color:#F0515A"/>
				<stop  offset="1" style="stop-color:#2B338C"/>
			</linearGradient>
			<polygon class="st3" points="92.7,241.8 77.4,241.8 75.4,224.7 68.4,231.3 64.8,241.8 51.6,241.8 67.2,196.3 80.4,196.3 74,215 
				92.9,196.3 105.5,196.3 88.3,212.9 			"/>
			
				<linearGradient id="SVGID_5_" gradientUnits="userSpaceOnUse" x1="-18.8331" y1="181.7501" x2="120.5912" y2="29.7932" gradientTransform="matrix(1 0 0 -1 0 246)">
				<stop  offset="0" style="stop-color:#A677B4"/>
				<stop  offset="0.3626" style="stop-color:#F0515A"/>
				<stop  offset="1" style="stop-color:#2B338C"/>
			</linearGradient>
			<polygon class="st4" points="120.3,207.2 108.4,241.8 96.2,241.8 95.9,239.7 107,207.2 97.7,207.2 109,196.3 150.2,196.3 
				129.7,207.2 			"/>
			
				<linearGradient id="SVGID_6_" gradientUnits="userSpaceOnUse" x1="-8.8125" y1="190.9441" x2="130.6118" y2="38.9873" gradientTransform="matrix(1 0 0 -1 0 246)">
				<stop  offset="0" style="stop-color:#A677B4"/>
				<stop  offset="0.3626" style="stop-color:#F0515A"/>
				<stop  offset="1" style="stop-color:#2B338C"/>
			</linearGradient>
			<path class="st5" d="M133.9,242.5c-6.4,0-10.9-2.1-13.5-6.3s-2.7-9.8-0.2-16.8c2.3-6.7,6.2-12.2,11.6-16.6
				c5.4-4.4,11.5-6.5,18.3-6.5c6.3,0,10.8,2.1,13.4,6.2c2.6,4.1,2.6,9.6,0.3,16.5c-2.5,7.1-6.5,12.8-12,17.1
				C146.2,240.3,140.3,242.5,133.9,242.5L133.9,242.5z M137.4,232.3c2.4,0,4.4-1,6.2-3c1.7-2,3.6-5.7,5.4-11.1
				c2.7-7.8,1.9-11.7-2.3-11.7c-4.6,0-8.5,4.5-11.6,13.4C132.2,228.1,132.9,232.3,137.4,232.3L137.4,232.3z"/>
			
				<linearGradient id="SVGID_7_" gradientUnits="userSpaceOnUse" x1="12.7679" y1="210.7447" x2="152.1921" y2="58.7879" gradientTransform="matrix(1 0 0 -1 0 246)">
				<stop  offset="0" style="stop-color:#A677B4"/>
				<stop  offset="0.3626" style="stop-color:#F0515A"/>
				<stop  offset="1" style="stop-color:#2B338C"/>
			</linearGradient>
			<path class="st6" d="M193.2,241.8h-11.4l-5.7-20.1c-0.7-2.6-1.2-5.7-1.5-9.5c-0.3,2.9-0.8,5.4-1.5,7.5l-7.5,22.1h-11.4l15.6-45.5
				H183l4.9,16.7c1,3.3,1.6,6.2,1.8,8.8c0.6-3.9,1.6-7.9,3-11.9l4.6-13.5h11.4L193.2,241.8z"/>
		</g>
	</g>
</g>
</svg>
