<svg xmlns="http://www.w3.org/2000/svg" width="982.89" height="668.81" viewBox="0 0 982.89 668.81">
  <defs>
    <style>
      .a5def076-d125-48b8-85e1-a6baa8be08cf, .a8d10093-652f-41d1-bb9c-b4afa85b716a, .aa60e3a6-708f-469f-846c-f3f206795ed5, .b532080e-7eef-47fc-a1c5-2df2574b2da1, .b5367c94-153c-4c8c-a420-79dbbc348b69, .b5ed8687-1f1f-4b2c-879f-5ab631add003, .e0d7b721-0832-41bf-894b-b9e5da7a7bfb, .f289c02a-c1bf-4686-82e0-99bf8fdd1e50 {
        fill: none;
      }

      .b5367c94-153c-4c8c-a420-79dbbc348b69, .f289c02a-c1bf-4686-82e0-99bf8fdd1e50 {
        stroke: #e00;
        stroke-width: 2px;
      }

      .a5def076-d125-48b8-85e1-a6baa8be08cf, .a8d10093-652f-41d1-bb9c-b4afa85b716a, .aa60e3a6-708f-469f-846c-f3f206795ed5, .b532080e-7eef-47fc-a1c5-2df2574b2da1, .b5367c94-153c-4c8c-a420-79dbbc348b69, .b5ed8687-1f1f-4b2c-879f-5ab631add003, .bb9149aa-b452-46b1-a1b1-1c9f2f4f39f8, .e0d7b721-0832-41bf-894b-b9e5da7a7bfb, .f289c02a-c1bf-4686-82e0-99bf8fdd1e50 {
        stroke-miterlimit: 10;
      }

      .b5367c94-153c-4c8c-a420-79dbbc348b69 {
        stroke-linecap: round;
      }

      .bb9149aa-b452-46b1-a1b1-1c9f2f4f39f8, .ff013caa-4581-4347-9325-316acc35db50 {
        fill: #fff;
      }

      .bb9149aa-b452-46b1-a1b1-1c9f2f4f39f8 {
        stroke: #fff;
        stroke-width: 3.44px;
      }

      .a734ed61-c093-4afa-9ea7-8076b459623e {
        fill: #326de6;
      }

      .a8db8a88-ef48-4170-91e1-1af20e6d2753 {
        opacity: 0.8;
      }

      .adef30d5-b9ed-4077-bb0f-105d519852a8 {
        fill: #e8eaea;
      }

      .aa9fa07a-6d87-40b1-8bea-78d0dfd6b0f3 {
        fill: #d8d8d8;
      }

      .ea64cae2-2006-4209-9471-7fcc44ce5421 {
        fill: #bababa;
      }

      .a8f3f987-62da-4d13-9bf3-52b0090806d2 {
        opacity: 0.7;
      }

      .aa751b2c-81e9-4b75-becf-94a3b3aaeb89 {
        opacity: 0.45;
      }

      .e711cfe1-1b03-4faa-9054-7da706b52ea8 {
        opacity: 0.9;
      }

      .a5def076-d125-48b8-85e1-a6baa8be08cf, .a8d10093-652f-41d1-bb9c-b4afa85b716a, .aa60e3a6-708f-469f-846c-f3f206795ed5, .b532080e-7eef-47fc-a1c5-2df2574b2da1, .b5ed8687-1f1f-4b2c-879f-5ab631add003, .e0d7b721-0832-41bf-894b-b9e5da7a7bfb {
        stroke: #898989;
      }

      .b532080e-7eef-47fc-a1c5-2df2574b2da1 {
        stroke-width: 0.31px;
      }

      .aa60e3a6-708f-469f-846c-f3f206795ed5 {
        stroke-width: 0.51px;
      }

      .a5def076-d125-48b8-85e1-a6baa8be08cf {
        stroke-width: 0.7px;
      }

      .e0d7b721-0832-41bf-894b-b9e5da7a7bfb {
        stroke-width: 0.43px;
      }

      .bc179f21-0eab-4a80-af21-553c4e84feb2 {
        opacity: 0.79;
      }

      .a8d10093-652f-41d1-bb9c-b4afa85b716a {
        stroke-width: 0.32px;
      }

      .b5ed8687-1f1f-4b2c-879f-5ab631add003 {
        stroke-width: 0.37px;
      }

      .f603e4a3-ab5f-462f-8942-5aef7504967a {
        opacity: 0.6;
      }
    </style>
  </defs>
  <title>openshift-pipelines-graphic</title>
  <g id="a883e762-715c-4996-a629-561847df2780" data-name="Layer 2">
    <g id="e952d1e1-01d9-4655-b82b-4e9c480f6cde" data-name="Layer 1">
      <g>
        <g>
          <path class="f289c02a-c1bf-4686-82e0-99bf8fdd1e50" d="M363,607.48a213.64,213.64,0,0,1-63.9,42.7C191,697,65.43,647.38,18.63,539.28s2.8-233.7,110.9-280.5c69.3-30,127.9-10.3,203.9,14.5l315.9,126.6c65.3,23.7,118.5,46.4,204,10.1,108.4-46,157.7-172.4,110.9-280.5s-172.4-157.7-280.5-110.8a212.85,212.85,0,0,0-99.4,88.1"/>
          <polyline class="b5367c94-153c-4c8c-a420-79dbbc348b69" points="316.52 607.48 363.43 606.78 361.93 651.48"/>
          <polyline class="b5367c94-153c-4c8c-a420-79dbbc348b69" points="628.42 93.18 583.63 107.38 572.23 64.18"/>
        </g>
        <g>
          <path class="bb9149aa-b452-46b1-a1b1-1c9f2f4f39f8" d="M553.33,279.38a12.53,12.53,0,0,0-6-7l-57.9-27.7a10,10,0,0,0-4.7-1,18.68,18.68,0,0,0-4.7.4L422.13,272a10.39,10.39,0,0,0-5.7,7l-14.2,62.4a12.22,12.22,0,0,0,2.1,9.1l40.1,49.5a13.81,13.81,0,0,0,8.7,4h63.8a9.41,9.41,0,0,0,8.7-4l40.1-49.5a12.92,12.92,0,0,0,2.3-9.1Z"/>
          <path class="a734ed61-c093-4afa-9ea7-8076b459623e" d="M553.33,279.38a12.53,12.53,0,0,0-6-7l-57.9-27.7a10,10,0,0,0-4.7-1,18.68,18.68,0,0,0-4.7.4L422.13,272a10.39,10.39,0,0,0-5.7,7l-14.2,62.4a12.22,12.22,0,0,0,2.1,9.1l40.1,49.5a13.81,13.81,0,0,0,8.7,4h63.8a9.41,9.41,0,0,0,8.7-4l40.1-49.5a12.92,12.92,0,0,0,2.3-9.1Z"/>
          <path class="ff013caa-4581-4347-9325-316acc35db50" d="M544.53,339h0c-.2,0-.4,0-.4-.2s-.4-.2-.8-.2a9,9,0,0,0-2.3-.2,2.54,2.54,0,0,1-1.2-.2h-.1a29.71,29.71,0,0,1-6.5-1.2,2.37,2.37,0,0,1-1.3-1.3h0l-1.5-.4a47,47,0,0,0-.8-16.7,48.62,48.62,0,0,0-6.7-15.5l1.2-1.2h0v-.3a3.37,3.37,0,0,1,.5-1.7,32.18,32.18,0,0,1,5.3-3.8h0a6.12,6.12,0,0,1,1.2-.5c.8-.4,1.3-.8,2.1-1.2.2-.2.4-.2.5-.4s0-.2,0-.4h0a3.73,3.73,0,0,0,.8-5.3,3.37,3.37,0,0,0-2.7-1.3,4.49,4.49,0,0,0-2.7,1h0l-.2.2c-.2.2-.4.4-.5.4a11.43,11.43,0,0,0-1.5,1.7c-.2.4-.5.5-.8.8h0a27.1,27.1,0,0,1-4.7,4.2,2.84,2.84,0,0,1-1.2.4,1.34,1.34,0,0,1-.8-.2h-.2l-1.5,1c-1.5-1.5-3.2-3-4.7-4.5a48.89,48.89,0,0,0-24.7-9.9l-.2-1.5h0v.2a3.6,3.6,0,0,1-1-1.5,36.58,36.58,0,0,1,.4-6.5v-.2c0-.4.2-.8.2-1.2.2-.8.2-1.5.4-2.3v-1.2h0a3.8,3.8,0,0,0-7.6,0h0v1a9.26,9.26,0,0,0,.4,2.3,2.54,2.54,0,0,1,.2,1.2v.2a34.41,34.41,0,0,1,.4,6.5,2.52,2.52,0,0,1-1,1.5v.4h0l-.2,1.5a54.19,54.19,0,0,0-6.5,1,46,46,0,0,0-23.4,13.3l-1.2-.8H449c-.2,0-.4.2-.8.2a3.37,3.37,0,0,1-1.2-.4,28.15,28.15,0,0,1-4.7-4.4h0c-.2-.4-.5-.5-.8-.8-.5-.5-1-1.2-1.5-1.7-.2-.2-.4-.2-.5-.4l-.2-.2h0a5.23,5.23,0,0,0-2.7-1,3,3,0,0,0-2.7,1.3,3.92,3.92,0,0,0,.8,5.3h0a.2.2,0,0,1,.2.2s.4.4.5.4a13,13,0,0,0,2.1,1.2,6.12,6.12,0,0,0,1.2.5h0A29.81,29.81,0,0,1,444,300c.4.4.8,1.2.5,1.7v-.1h0l1.2,1.2c-.2.4-.4.5-.5,1a45.55,45.55,0,0,0-6.7,31.1l-1.5.4h0a.2.2,0,0,1-.2.2,3.25,3.25,0,0,1-1.3,1.3A44,44,0,0,1,429,338h0a2.54,2.54,0,0,0-1.2.2c-.8,0-1.5.2-2.3.2-.2,0-.4.2-.8.2-.2,0-.2,0-.4.2h0a3.69,3.69,0,0,0-3,4.4h0a3.68,3.68,0,0,0,3.8,2.7,2,2,0,0,0,1-.2h0c.2,0,.2,0,.2-.2s.5,0,.8,0a10.23,10.23,0,0,0,2.1-.8,2.84,2.84,0,0,1,1.2-.4h.2a32.46,32.46,0,0,1,6.3-1.7h.2a2.46,2.46,0,0,1,1.5.5.2.2,0,0,1,.2.2h0l1.7-.2a46.21,46.21,0,0,0,15.5,22.2,25.88,25.88,0,0,0,5.2,3.4l-1,1.3h0a.2.2,0,0,0,.2.2,2.12,2.12,0,0,1,.2,1.9,36.5,36.5,0,0,1-3,5.5v.2a5.77,5.77,0,0,1-.8,1,20.15,20.15,0,0,0-1.3,1.9c-.2.2-.2.4-.4.5a.2.2,0,0,1-.2.2h0a4,4,0,0,0,1.5,5.2,3.82,3.82,0,0,0,1.3.4,4.41,4.41,0,0,0,3.6-2.3h0a.2.2,0,0,1,.2-.2.66.66,0,0,1,.4-.5,18,18,0,0,1,.8-2.1l.4-1.2h0a25.52,25.52,0,0,1,2.5-5.9,4.19,4.19,0,0,1,1.5-1.2c.2,0,.2,0,.2-.2h0l.8-1.5a44.26,44.26,0,0,0,16.5,3,39.64,39.64,0,0,0,10.2-1.3c2.1-.4,4.2-1.2,6-1.7l.8,1.3h0c.2,0,.2,0,.2.2a2.48,2.48,0,0,1,1.5,1.2,30.75,30.75,0,0,1,2.5,5.9v.2l.4,1.2a6.56,6.56,0,0,0,.8,2.1c.2.2.2.4.4.5a.2.2,0,0,0,.2.2h0a4.41,4.41,0,0,0,3.6,2.3,4.19,4.19,0,0,0,1.5-.4,3.26,3.26,0,0,0,1.7-2.1,4.45,4.45,0,0,0-.2-2.8h0a.2.2,0,0,0-.2-.2.66.66,0,0,0-.4-.5,9.06,9.06,0,0,0-1.3-1.9,5.77,5.77,0,0,0-.8-1v-.4a21.13,21.13,0,0,1-3-5.5,2.18,2.18,0,0,1,.2-1.9.2.2,0,0,1,.2-.2h0l-.5-1.5a46.85,46.85,0,0,0,20.5-25.8l1.5.2h0a.2.2,0,0,0,.2-.2,2.1,2.1,0,0,1,1.5-.5h.2a35,35,0,0,1,6,1.7h.2a2.84,2.84,0,0,0,1.2.4,10,10,0,0,0,2.1,1c.2,0,.4.2.8.2.2,0,.2,0,.4.2h0a1.64,1.64,0,0,0,1,.2,4.24,4.24,0,0,0,3.8-2.7A4.38,4.38,0,0,0,544.53,339Zm-54.9-5.9-5.2,2.5-5.2-2.5-1.3-5.5,3.6-4.5h5.7l3.6,4.5Zm31-12.4a34.78,34.78,0,0,1,.8,12l-18-5.2h0a3.13,3.13,0,0,1-2.3-3.8,2.87,2.87,0,0,1,.8-1.3l14.2-12.9A45.29,45.29,0,0,1,520.63,320.68Zm-10.3-18.2-15.5,11a3.27,3.27,0,0,1-4.2-.8,1.66,1.66,0,0,1-.5-1.3l-1.2-19.2a36.64,36.64,0,0,1,21.4,10.3Zm-34.3-9.7,3.8-.8-1,19h0a3.12,3.12,0,0,1-3.2,3,4.19,4.19,0,0,1-1.5-.4l-15.7-11.2A39,39,0,0,1,476,292.78Zm-23.2,16.7,14,12.5h0a3.15,3.15,0,0,1,.4,4.4,2.68,2.68,0,0,1-1.5,1l-18.4,5.3A40.53,40.53,0,0,1,452.83,309.48Zm-3.2,32.1,18.8-3.2a3.14,3.14,0,0,1,3.2,2.5,2.18,2.18,0,0,1-.2,1.9h0l-7.1,17.4A36.59,36.59,0,0,1,449.63,341.58Zm43.1,23.5a43.79,43.79,0,0,1-8.2,1,44.23,44.23,0,0,1-12-1.9l9.3-16.9a3,3,0,0,1,3.8-.8,17.38,17.38,0,0,1,1.5,1.3h0l9.1,16.5C495.13,364.58,494,364.78,492.73,365.08Zm23.1-16.4a36.49,36.49,0,0,1-11.4,11.4l-7.4-17.9a3.11,3.11,0,0,1,1.7-3.6,5.26,5.26,0,0,1,1.7-.4l19,3.2A31,31,0,0,1,515.83,348.68Z"/>
        </g>
        <g class="a8db8a88-ef48-4170-91e1-1af20e6d2753">
          <polygon class="adef30d5-b9ed-4077-bb0f-105d519852a8" points="793.23 214.58 851.33 246.28 909.33 214.58 851.33 181.68 793.23 214.58"/>
          <polygon class="aa9fa07a-6d87-40b1-8bea-78d0dfd6b0f3" points="793.23 280.48 851.33 313.98 851.33 245.78 793.23 213.98 793.23 280.48"/>
          <polygon class="ea64cae2-2006-4209-9471-7fcc44ce5421" points="909.33 280.98 909.33 214.58 851.33 245.78 851.33 313.98 909.33 280.98"/>
        </g>
        <g class="a8f3f987-62da-4d13-9bf3-52b0090806d2">
          <polygon class="adef30d5-b9ed-4077-bb0f-105d519852a8" points="857.42 181.98 880.33 194.48 903.13 181.98 880.33 168.98 857.42 181.98"/>
          <polygon class="aa9fa07a-6d87-40b1-8bea-78d0dfd6b0f3" points="857.42 207.88 880.33 221.08 880.33 194.18 857.42 181.78 857.42 207.88"/>
          <polygon class="ea64cae2-2006-4209-9471-7fcc44ce5421" points="903.13 208.18 903.13 181.98 880.33 194.18 880.33 221.08 903.13 208.18"/>
        </g>
        <g class="a8f3f987-62da-4d13-9bf3-52b0090806d2">
          <polygon class="adef30d5-b9ed-4077-bb0f-105d519852a8" points="624.02 168.38 693.52 206.38 763.13 168.38 693.52 128.88 624.02 168.38"/>
          <polygon class="aa9fa07a-6d87-40b1-8bea-78d0dfd6b0f3" points="624.02 247.18 693.52 287.38 693.52 205.68 624.02 167.68 624.02 247.18"/>
          <polygon class="ea64cae2-2006-4209-9471-7fcc44ce5421" points="763.13 247.98 763.13 168.38 693.52 205.68 693.52 287.38 763.13 247.98"/>
        </g>
        <g class="aa751b2c-81e9-4b75-becf-94a3b3aaeb89">
          <polygon class="adef30d5-b9ed-4077-bb0f-105d519852a8" points="733.33 144.78 773.23 166.58 813.23 144.78 773.23 122.08 733.33 144.78"/>
          <polygon class="aa9fa07a-6d87-40b1-8bea-78d0dfd6b0f3" points="733.33 190.08 773.23 213.18 773.23 166.18 733.33 144.38 733.33 190.08"/>
          <polygon class="ea64cae2-2006-4209-9471-7fcc44ce5421" points="813.23 190.58 813.23 144.78 773.23 166.18 773.23 213.18 813.23 190.58"/>
        </g>
        <g class="e711cfe1-1b03-4faa-9054-7da706b52ea8">
          <polygon class="b532080e-7eef-47fc-a1c5-2df2574b2da1" points="780.52 185.58 815.63 204.78 850.83 185.58 815.63 165.68 780.52 185.58"/>
          <polygon class="b532080e-7eef-47fc-a1c5-2df2574b2da1" points="780.52 225.48 815.63 245.78 815.63 204.38 780.52 185.18 780.52 225.48"/>
          <polygon class="b532080e-7eef-47fc-a1c5-2df2574b2da1" points="850.83 225.78 850.83 185.58 815.63 204.38 815.63 245.78 850.83 225.78"/>
        </g>
        <g>
          <polygon class="aa60e3a6-708f-469f-846c-f3f206795ed5" points="616.23 193.38 681.23 228.88 746.13 193.38 681.23 156.48 616.23 193.38"/>
          <polygon class="aa60e3a6-708f-469f-846c-f3f206795ed5" points="616.23 266.98 681.23 304.48 681.23 228.18 616.23 192.68 616.23 266.98"/>
          <polygon class="aa60e3a6-708f-469f-846c-f3f206795ed5" points="746.13 267.68 746.13 193.38 681.23 228.18 681.23 304.48 746.13 267.68"/>
        </g>
        <g class="a8db8a88-ef48-4170-91e1-1af20e6d2753">
          <polygon class="a5def076-d125-48b8-85e1-a6baa8be08cf" points="726.52 100.98 753.23 115.58 779.92 100.98 753.23 85.88 726.52 100.98"/>
          <polygon class="a5def076-d125-48b8-85e1-a6baa8be08cf" points="726.52 131.28 753.23 146.68 753.23 115.38 726.52 100.78 726.52 131.28"/>
          <polygon class="a5def076-d125-48b8-85e1-a6baa8be08cf" points="779.92 131.48 779.92 100.98 753.23 115.38 753.23 146.68 779.92 131.48"/>
        </g>
        <g>
          <polygon class="e0d7b721-0832-41bf-894b-b9e5da7a7bfb" points="763.13 312.08 793.23 328.58 823.33 312.08 793.23 294.98 763.13 312.08"/>
          <polygon class="e0d7b721-0832-41bf-894b-b9e5da7a7bfb" points="763.13 346.28 793.23 363.68 793.23 328.28 763.13 311.78 763.13 346.28"/>
          <polygon class="e0d7b721-0832-41bf-894b-b9e5da7a7bfb" points="823.33 346.58 823.33 312.08 793.23 328.28 793.23 363.68 823.33 346.58"/>
        </g>
        <g class="bc179f21-0eab-4a80-af21-553c4e84feb2">
          <polygon class="adef30d5-b9ed-4077-bb0f-105d519852a8" points="728.33 252.68 756.02 267.78 783.73 252.68 756.02 236.98 728.33 252.68"/>
          <polygon class="aa9fa07a-6d87-40b1-8bea-78d0dfd6b0f3" points="728.33 283.98 756.02 299.98 756.02 267.48 728.33 252.38 728.33 283.98"/>
          <polygon class="ea64cae2-2006-4209-9471-7fcc44ce5421" points="783.73 284.28 783.73 252.68 756.02 267.48 756.02 299.98 783.73 284.28"/>
        </g>
        <g>
          <polygon class="a8d10093-652f-41d1-bb9c-b4afa85b716a" points="833.23 90.18 855.83 102.58 878.42 90.18 855.83 77.38 833.23 90.18"/>
          <polygon class="a8d10093-652f-41d1-bb9c-b4afa85b716a" points="833.23 115.88 855.83 128.88 855.83 102.38 833.23 89.98 833.23 115.88"/>
          <polygon class="a8d10093-652f-41d1-bb9c-b4afa85b716a" points="878.42 116.08 878.42 90.18 855.83 102.38 855.83 128.88 878.42 116.08"/>
        </g>
        <g class="a8db8a88-ef48-4170-91e1-1af20e6d2753">
          <polygon class="adef30d5-b9ed-4077-bb0f-105d519852a8" points="194.43 464.38 248.13 493.78 301.93 464.38 248.13 433.88 194.43 464.38"/>
          <polygon class="aa9fa07a-6d87-40b1-8bea-78d0dfd6b0f3" points="194.43 525.38 248.13 556.38 248.13 493.18 194.43 463.78 194.43 525.38"/>
          <polygon class="ea64cae2-2006-4209-9471-7fcc44ce5421" points="301.93 525.88 301.93 464.38 248.13 493.18 248.13 556.38 301.93 525.88"/>
        </g>
        <g class="a8f3f987-62da-4d13-9bf3-52b0090806d2">
          <polygon class="adef30d5-b9ed-4077-bb0f-105d519852a8" points="90.13 410.48 159.63 448.48 229.22 410.48 159.63 371.08 90.13 410.48"/>
          <polygon class="aa9fa07a-6d87-40b1-8bea-78d0dfd6b0f3" points="90.13 489.38 159.63 529.48 159.63 447.78 90.13 409.78 90.13 489.38"/>
          <polygon class="ea64cae2-2006-4209-9471-7fcc44ce5421" points="229.22 490.08 229.22 410.48 159.63 447.78 159.63 529.48 229.22 490.08"/>
        </g>
        <g class="aa751b2c-81e9-4b75-becf-94a3b3aaeb89">
          <polygon class="adef30d5-b9ed-4077-bb0f-105d519852a8" points="107.33 342.18 147.32 364.08 187.22 342.18 147.32 319.48 107.33 342.18"/>
          <polygon class="aa9fa07a-6d87-40b1-8bea-78d0dfd6b0f3" points="107.33 387.58 147.32 410.58 147.32 363.68 107.33 341.78 107.33 387.58"/>
          <polygon class="ea64cae2-2006-4209-9471-7fcc44ce5421" points="187.22 387.98 187.22 342.18 147.32 363.68 147.32 410.58 187.22 387.98"/>
        </g>
        <g>
          <polygon class="b532080e-7eef-47fc-a1c5-2df2574b2da1" points="253.93 369.08 289.13 388.28 324.23 369.08 289.13 349.18 253.93 369.08"/>
          <polygon class="b532080e-7eef-47fc-a1c5-2df2574b2da1" points="253.93 408.98 289.13 429.28 289.13 387.98 253.93 368.78 253.93 408.98"/>
          <polygon class="b532080e-7eef-47fc-a1c5-2df2574b2da1" points="324.23 409.28 324.23 369.08 289.13 387.98 289.13 429.28 324.23 409.28"/>
        </g>
        <g>
          <polygon class="b5ed8687-1f1f-4b2c-879f-5ab631add003" points="212.72 446.98 259.82 472.68 306.82 446.98 259.82 420.28 212.72 446.98"/>
          <polygon class="b5ed8687-1f1f-4b2c-879f-5ab631add003" points="212.72 500.38 259.82 527.48 259.82 472.18 212.72 446.48 212.72 500.38"/>
          <polygon class="b5ed8687-1f1f-4b2c-879f-5ab631add003" points="306.82 500.88 306.82 446.98 259.82 472.18 259.82 527.48 306.82 500.88"/>
        </g>
        <g class="f603e4a3-ab5f-462f-8942-5aef7504967a">
          <polygon class="a5def076-d125-48b8-85e1-a6baa8be08cf" points="167.72 363.58 194.43 378.08 221.13 363.58 194.43 348.38 167.72 363.58"/>
          <polygon class="a5def076-d125-48b8-85e1-a6baa8be08cf" points="167.72 393.78 194.43 409.18 194.43 377.88 167.72 363.28 167.72 393.78"/>
          <polygon class="a5def076-d125-48b8-85e1-a6baa8be08cf" points="221.13 394.08 221.13 363.58 194.43 377.88 194.43 409.18 221.13 394.08"/>
        </g>
        <g>
          <polygon class="e0d7b721-0832-41bf-894b-b9e5da7a7bfb" points="129.53 558.98 159.72 575.48 189.82 558.98 159.72 541.88 129.53 558.98"/>
          <polygon class="e0d7b721-0832-41bf-894b-b9e5da7a7bfb" points="129.53 593.18 159.72 610.58 159.72 575.18 129.53 558.68 129.53 593.18"/>
          <polygon class="e0d7b721-0832-41bf-894b-b9e5da7a7bfb" points="189.82 593.48 189.82 558.98 159.72 575.18 159.72 610.58 189.82 593.48"/>
        </g>
        <g class="bc179f21-0eab-4a80-af21-553c4e84feb2">
          <polygon class="adef30d5-b9ed-4077-bb0f-105d519852a8" points="261.43 374.98 289.13 390.08 316.82 374.98 289.13 359.28 261.43 374.98"/>
          <polygon class="aa9fa07a-6d87-40b1-8bea-78d0dfd6b0f3" points="261.43 406.38 289.13 422.28 289.13 389.78 261.43 374.68 261.43 406.38"/>
          <polygon class="ea64cae2-2006-4209-9471-7fcc44ce5421" points="316.82 406.58 316.82 374.98 289.13 389.78 289.13 422.28 316.82 406.58"/>
        </g>
        <g>
          <polygon class="a8d10093-652f-41d1-bb9c-b4afa85b716a" points="217.72 314.28 240.32 326.68 262.93 314.28 240.32 301.48 217.72 314.28"/>
          <polygon class="a8d10093-652f-41d1-bb9c-b4afa85b716a" points="217.72 339.98 240.32 353.08 240.32 326.48 217.72 314.08 217.72 339.98"/>
          <polygon class="a8d10093-652f-41d1-bb9c-b4afa85b716a" points="262.93 340.18 262.93 314.28 240.32 326.48 240.32 353.08 262.93 340.18"/>
        </g>
        <g class="a8f3f987-62da-4d13-9bf3-52b0090806d2">
          <polygon class="adef30d5-b9ed-4077-bb0f-105d519852a8" points="175.13 577.78 197.93 590.28 220.82 577.78 197.93 564.78 175.13 577.78"/>
          <polygon class="aa9fa07a-6d87-40b1-8bea-78d0dfd6b0f3" points="175.13 603.68 197.93 616.88 197.93 589.98 175.13 577.48 175.13 603.68"/>
          <polygon class="ea64cae2-2006-4209-9471-7fcc44ce5421" points="220.82 603.88 220.82 577.78 197.93 589.98 197.93 616.88 220.82 603.88"/>
        </g>
        <g class="bc179f21-0eab-4a80-af21-553c4e84feb2">
          <polygon class="adef30d5-b9ed-4077-bb0f-105d519852a8" points="328.32 444.88 369.82 467.58 411.32 444.88 369.82 421.28 328.32 444.88"/>
          <polygon class="aa9fa07a-6d87-40b1-8bea-78d0dfd6b0f3" points="328.32 491.98 369.82 515.98 369.82 467.18 328.32 444.38 328.32 491.98"/>
          <polygon class="ea64cae2-2006-4209-9471-7fcc44ce5421" points="411.32 492.38 411.32 444.88 369.82 467.18 369.82 515.98 411.32 492.38"/>
        </g>
        <g class="a8f3f987-62da-4d13-9bf3-52b0090806d2">
          <polygon class="adef30d5-b9ed-4077-bb0f-105d519852a8" points="335.63 403.08 358.43 415.58 381.32 403.08 358.43 390.08 335.63 403.08"/>
          <polygon class="aa9fa07a-6d87-40b1-8bea-78d0dfd6b0f3" points="335.63 428.98 358.43 442.18 358.43 415.28 335.63 402.78 335.63 428.98"/>
          <polygon class="ea64cae2-2006-4209-9471-7fcc44ce5421" points="381.32 429.18 381.32 403.08 358.43 415.28 358.43 442.18 381.32 429.18"/>
        </g>
      </g>
    </g>
  </g>
</svg>
